<?xml version="1.0" encoding="UTF-8"?>
<svg id="Layer_2" data-name="Layer 2" xmlns="http://www.w3.org/2000/svg" viewBox="0 0 971.9 1152">
  <defs>
    <style>
      .cls-1 {
        fill: #fff;
      }
    </style>
  </defs>
  <g id="Objects">
    <path class="cls-1" d="m971.9,666c0,268.41-217.59,486-486,486S12.13,946.43.42,688.44c-.21-4.28-.34-8.57-.42-12.88v-.04c2.07-40.4,35.48-72.52,76.4-72.52s75.43,33.19,76.48,74.53h.22c6.07,178.57,152.75,321.47,332.8,321.47s333-149.09,333-333-144.2-328.06-323.9-332.87v117.46c0,39.74-43.02,64.57-77.43,44.7L72.12,295.85c-34.42-19.87-34.42-69.54,0-89.41L417.57,6.99c34.41-19.87,77.43,4.97,77.43,44.71v128.39c264.21,4.85,476.9,220.54,476.9,485.91Z"/>
  </g>
</svg>